# Blender 4.2.2 LTS
# www.blender.org
mtllib flashlight.mtl
o Cylinder
v 0.021631 0.066574 -0.028106
v 0.018242 0.056143 0.021894
v 0.056631 0.041145 -0.028106
v 0.047758 0.034698 0.021894
v 0.070000 0.000000 -0.028106
v 0.059032 0.000000 0.021894
v 0.056631 -0.041145 -0.028106
v 0.047758 -0.034698 0.021894
v 0.021631 -0.066574 -0.028106
v 0.018242 -0.056143 0.021894
v -0.021631 -0.066574 -0.028106
v -0.018242 -0.056143 0.021894
v -0.056631 -0.041145 -0.028106
v -0.047758 -0.034698 0.021894
v -0.070000 -0.000000 -0.028106
v -0.059032 -0.000000 0.021894
v -0.056631 0.041145 -0.028106
v -0.047758 0.034698 0.021894
v -0.021631 0.066574 -0.028106
v -0.018242 0.056143 0.021894
v 0.056631 0.041145 0.021894
v 0.021631 0.066574 0.021894
v 0.070000 0.000000 0.021894
v 0.056631 -0.041145 0.021894
v 0.021631 -0.066574 0.021894
v -0.021631 -0.066574 0.021894
v -0.056631 -0.041145 0.021894
v -0.070000 -0.000000 0.021894
v -0.056631 0.041145 0.021894
v -0.021631 0.066574 0.021894
v 0.047733 0.034621 0.006744
v 0.018217 0.056065 0.006744
v 0.059007 -0.000077 0.006744
v 0.047733 -0.034776 0.006744
v 0.018217 -0.056220 0.006744
v -0.018267 -0.056220 0.006744
v -0.047783 -0.034776 0.006744
v -0.059057 -0.000077 0.006744
v -0.047783 0.034621 0.006744
v -0.018267 0.056065 0.006744
vn 0.5878 0.8090 -0.0000
vn 0.9511 0.3090 -0.0000
vn 0.9511 -0.3090 -0.0000
vn 0.5878 -0.8090 -0.0000
vn -0.0000 -1.0000 -0.0000
vn -0.5878 -0.8090 -0.0000
vn -0.9511 -0.3090 -0.0000
vn -0.9511 0.3090 -0.0000
vn -0.5878 -0.8090 0.0051
vn -0.5878 0.8090 -0.0000
vn -0.0000 1.0000 -0.0000
vn -0.0000 -0.0000 -1.0000
vn -0.0000 -0.0000 1.0000
vn -0.0000 1.0000 -0.0051
vn -0.9511 -0.3090 0.0032
vn 0.5878 -0.8090 0.0032
vn 0.5878 0.8090 -0.0051
vn -0.0000 -1.0000 0.0051
vn 0.9511 0.3090 -0.0032
vn -0.5878 0.8090 -0.0032
vt 1.000000 0.500000
vt 1.000000 1.000000
vt 0.900000 1.000000
vt 0.900000 0.500000
vt 0.800000 1.000000
vt 0.800000 0.500000
vt 0.700000 1.000000
vt 0.700000 0.500000
vt 0.600000 1.000000
vt 0.600000 0.500000
vt 0.500000 1.000000
vt 0.500000 0.500000
vt 0.400000 1.000000
vt 0.400000 0.500000
vt 0.300000 1.000000
vt 0.300000 0.500000
vt 0.200000 1.000000
vt 0.200000 0.500000
vt 0.368965 0.413741
vt 0.250000 0.452395
vt 0.100000 1.000000
vt 0.100000 0.500000
vt -0.000000 1.000000
vt -0.000000 0.500000
vt 0.750000 0.490000
vt 0.891068 0.444164
vt 0.978254 0.324164
vt 0.978254 0.175836
vt 0.891068 0.055836
vt 0.750000 0.010000
vt 0.608932 0.055836
vt 0.521746 0.175836
vt 0.521746 0.324164
vt 0.608932 0.444164
vt 0.391068 0.444164
vt 0.250000 0.490000
vt 0.442489 0.312544
vt 0.478254 0.324164
vt 0.442489 0.187456
vt 0.478254 0.175836
vt 0.368965 0.086259
vt 0.391068 0.055836
vt 0.250000 0.047605
vt 0.250000 0.010000
vt 0.131035 0.086259
vt 0.108932 0.055836
vt 0.057511 0.187456
vt 0.021746 0.175836
vt 0.057511 0.312544
vt 0.021746 0.324164
vt 0.131035 0.413741
vt 0.108932 0.444164
s 0
usemtl Material.002
f 1/1/1 22/2/1 21/3/1 3/4/1
f 3/4/2 21/3/2 23/5/2 5/6/2
f 5/6/3 23/5/3 24/7/3 7/8/3
f 7/8/4 24/7/4 25/9/4 9/10/4
f 9/10/5 25/9/5 26/11/5 11/12/5
f 11/12/6 26/11/6 27/13/6 13/14/6
f 13/14/7 27/13/7 28/15/7 15/16/7
f 15/16/8 28/15/8 29/17/8 17/18/8
f 4/19/9 2/20/9 32/20/9 31/19/9
f 17/18/10 29/17/10 30/21/10 19/22/10
f 19/22/11 30/21/11 22/23/11 1/24/11
f 1/25/12 3/26/12 5/27/12 7/28/12 9/29/12 11/30/12 13/31/12 15/32/12 17/33/12 19/34/12
f 2/20/13 4/19/13 21/35/13 22/36/13
f 4/19/13 6/37/13 23/38/13 21/35/13
f 6/37/13 8/39/13 24/40/13 23/38/13
f 8/39/13 10/41/13 25/42/13 24/40/13
f 10/41/13 12/43/13 26/44/13 25/42/13
f 12/43/13 14/45/13 27/46/13 26/44/13
f 14/45/13 16/47/13 28/48/13 27/46/13
f 16/47/13 18/49/13 29/50/13 28/48/13
f 18/49/13 20/51/13 30/52/13 29/50/13
f 20/51/13 2/20/13 22/36/13 30/52/13
f 18/49/3 16/47/3 38/47/3 39/49/3
f 12/43/14 10/41/14 35/41/14 36/43/14
f 6/37/15 4/19/15 31/19/15 33/37/15
f 20/51/16 18/49/16 39/49/16 40/51/16
f 14/45/17 12/43/17 36/43/17 37/45/17
f 8/39/8 6/37/8 33/37/8 34/39/8
f 2/20/18 20/51/18 40/51/18 32/20/18
f 16/47/19 14/45/19 37/45/19 38/47/19
f 10/41/20 8/39/20 34/39/20 35/41/20
o Cube
v -0.044919 0.061975 -0.028282
v -0.050000 0.055433 -0.028282
v -0.050000 0.055433 -0.178282
v -0.044919 0.061975 -0.178282
v 0.050000 0.055433 -0.028282
v 0.044919 0.061975 -0.028282
v 0.044919 0.061975 -0.178282
v 0.050000 0.055433 -0.178282
v -0.050000 -0.063232 -0.028282
v -0.047243 -0.066782 -0.028282
v -0.047243 -0.066782 -0.178282
v -0.050000 -0.063232 -0.178282
v 0.047243 -0.066782 -0.028282
v 0.050000 -0.063232 -0.028282
v 0.050000 -0.063232 -0.178282
v 0.047243 -0.066782 -0.178282
vn -0.0000 1.0000 -0.0000
vn -0.0000 -0.0000 -1.0000
vn -0.0000 -0.0000 1.0000
vn 1.0000 -0.0000 -0.0000
vn -0.7898 0.6134 -0.0000
vn 0.7898 0.6134 -0.0000
vn -1.0000 -0.0000 -0.0000
vn -0.7898 -0.6134 -0.0000
vn 0.7898 -0.6134 -0.0000
vn -0.0000 -1.0000 -0.0000
vt 0.637702 0.500000
vt 0.862298 0.500000
vt 0.862298 0.750000
vt 0.637702 0.750000
vt 0.375000 0.256891
vt 0.381891 0.250000
vt 0.612298 0.250000
vt 0.625000 0.262702
vt 0.625000 0.487298
vt 0.612298 0.500000
vt 0.381891 0.500000
vt 0.375000 0.493109
vt 0.375000 0.756891
vt 0.381891 0.750000
vt 0.612298 0.750000
vt 0.625000 0.762702
vt 0.625000 0.987298
vt 0.612298 1.000000
vt 0.381891 1.000000
vt 0.375000 0.993109
vt 0.625000 0.000000
vt 0.625000 0.250000
vt 0.612298 0.000000
vt 0.381891 0.000000
vt 0.131891 0.500000
vt 0.131891 0.750000
vt 0.125000 0.750000
vt 0.125000 0.500000
vt 0.368109 0.750000
vt 0.368109 0.500000
s 0
usemtl Material.001
f 47/53/21 44/54/21 41/55/21 46/56/21
f 51/57/22 52/58/22 43/59/22 44/60/22 47/61/22 48/62/22 55/63/22 56/64/22
f 53/65/23 54/66/23 45/67/23 46/68/23 41/69/23 42/70/23 49/71/23 50/72/23
f 55/63/24 48/62/24 45/67/24 54/66/24
f 41/73/25 44/74/25 43/59/25 42/75/25
f 47/53/26 46/56/26 45/67/26 48/62/26
f 49/76/27 42/75/27 43/59/27 52/58/27
f 51/77/28 50/78/28 49/79/28 52/80/28
f 53/81/29 56/82/29 55/63/29 54/66/29
f 51/77/30 56/82/30 53/81/30 50/78/30
o Cube.001
v -0.014855 0.075257 -0.056522
v -0.014855 0.089292 -0.056522
v -0.014855 0.075257 -0.155198
v -0.014855 0.089292 -0.155198
v 0.014855 0.075257 -0.056522
v 0.014855 0.089292 -0.056522
v 0.014855 0.075257 -0.155198
v 0.014855 0.089292 -0.155198
v -0.014855 0.075257 -0.064865
v -0.014855 0.089292 -0.064865
v 0.014855 0.075257 -0.064865
v 0.014855 0.089292 -0.064865
v -0.014855 0.089292 -0.144891
v 0.014855 0.075257 -0.144891
v -0.014855 0.075257 -0.144891
v 0.014855 0.089292 -0.144891
v -0.014855 0.061975 -0.064865
v -0.014855 0.061975 -0.056522
v 0.014855 0.061975 -0.155198
v -0.014855 0.061975 -0.155198
v 0.014855 0.061975 -0.144891
v 0.014855 0.061975 -0.056522
v 0.014855 0.061975 -0.064865
v -0.014855 0.061975 -0.144891
vn -1.0000 -0.0000 -0.0000
vn -0.0000 -0.0000 -1.0000
vn 1.0000 -0.0000 -0.0000
vn -0.0000 -0.0000 1.0000
vn -0.0000 1.0000 -0.0000
vn -0.0000 -1.0000 -0.0000
vt 0.375000 0.223887
vt 0.625000 0.223887
vt 0.625000 0.250000
vt 0.375000 0.250000
vt 0.625000 0.500000
vt 0.375000 0.500000
vt 0.375000 0.728863
vt 0.625000 0.728863
vt 0.625000 0.750000
vt 0.375000 0.750000
vt 0.625000 1.000000
vt 0.375000 1.000000
vt 0.375000 0.000000
vt 0.375000 0.021137
vt 0.875000 0.728863
vt 0.875000 0.750000
vt 0.625000 0.526113
vt 0.875000 0.526113
vt 0.125000 0.526113
vt 0.375000 0.526113
vt 0.125000 0.728863
vt 0.625000 0.000000
vt 0.625000 0.021137
vt 0.875000 0.500000
vt 0.125000 0.750000
vt 0.125000 0.500000
s 0
usemtl Material.003
f 71/83/31 69/84/31 60/85/31 59/86/31
f 59/86/32 60/85/32 64/87/32 63/88/32
f 67/89/33 68/90/33 62/91/33 61/92/33
f 61/92/34 62/91/34 58/93/34 57/94/34
f 57/95/31 65/96/31 73/96/31 74/95/31
f 68/90/35 66/97/35 58/98/35 62/91/35
f 72/99/35 69/100/35 66/97/35 68/90/35
f 71/101/36 70/102/36 67/89/36 65/103/36
f 70/102/33 72/99/33 68/90/33 67/89/33
f 57/95/31 58/104/31 66/105/31 65/96/31
f 63/88/33 64/87/33 72/99/33 70/102/33
f 71/83/31 59/86/31 76/86/31 80/83/31
f 64/87/35 60/106/35 69/100/35 72/99/35
f 65/96/31 66/105/31 69/84/31 71/83/31
f 73/103/36 79/89/36 78/92/36 74/107/36
f 76/108/36 75/88/36 77/102/36 80/101/36
f 63/88/33 70/102/33 77/102/33 75/88/33
f 70/102/34 71/101/34 80/101/34 77/102/34
f 67/89/33 61/92/33 78/92/33 79/89/33
f 61/92/34 57/94/34 74/94/34 78/92/34
f 65/103/32 67/89/32 79/89/32 73/103/32
f 59/86/32 63/88/32 75/88/32 76/86/32
o Cylinder.001
v 0.047709 0.034580 0.007000
v 0.018188 0.056018 0.007061
v 0.058990 -0.000116 0.006842
v 0.047724 -0.034816 0.006646
v 0.018212 -0.056266 0.006487
v -0.018271 -0.056273 0.006426
v -0.047792 -0.034835 0.006487
v -0.059073 -0.000140 0.006646
v -0.047807 0.034560 0.006842
v -0.018295 0.056010 0.007000
vn -0.0017 -0.0051 1.0000
vt 0.368965 0.413741
vt 0.250000 0.452395
vt 0.131035 0.413741
vt 0.057511 0.312544
vt 0.057511 0.187456
vt 0.131035 0.086259
vt 0.250000 0.047605
vt 0.368965 0.086259
vt 0.442489 0.187456
vt 0.442489 0.312544
s 0
usemtl Material
f 81/109/37 82/110/37 90/111/37 89/112/37 88/113/37 87/114/37 86/115/37 85/116/37 84/117/37 83/118/37
